<?xml version="1.0" standalone="no"?>
<!DOCTYPE svg PUBLIC "-//W3C//DTD SVG 20010904//EN"
 "http://www.w3.org/TR/2001/REC-SVG-20010904/DTD/svg10.dtd">
<svg version="1.0" xmlns="http://www.w3.org/2000/svg"
 width="500.000000pt" height="500.000000pt" viewBox="0 0 500.000000 500.000000"
 preserveAspectRatio="xMidYMid meet">

<g transform="translate(0.000000,500.000000) scale(0.100000,-0.100000)"
fill="#000000" stroke="none">
<path d="M1995 4567 c-16 -7 -43 -20 -60 -29 -44 -25 -1890 -1877 -1911 -1918
-14 -26 -19 -57 -19 -120 0 -74 3 -91 27 -130 40 -67 1882 -1902 1933 -1926
53 -24 146 -24 210 0 38 14 77 46 163 130 144 140 167 181 166 291 0 57 -5 90
-18 115 -10 19 -263 281 -563 581 -416 417 -541 548 -528 553 9 3 777 6 1706
6 1887 0 1725 -7 1807 73 24 23 55 64 68 90 25 48 25 53 22 237 l-3 188 -40
58 c-28 40 -57 67 -95 88 l-55 31 -1697 -4 c-933 -2 -1702 0 -1708 4 -8 5 179
199 523 544 466 466 539 543 562 593 32 69 35 133 10 208 -15 48 -34 72 -149
186 -108 108 -140 134 -180 148 -57 18 -128 20 -171 3z"/>
</g>
</svg>
