<?xml version="1.0" standalone="no"?>
<!DOCTYPE svg PUBLIC "-//W3C//DTD SVG 20010904//EN"
 "http://www.w3.org/TR/2001/REC-SVG-20010904/DTD/svg10.dtd">
<svg version="1.0" xmlns="http://www.w3.org/2000/svg"
 width="500.000000pt" height="500.000000pt" viewBox="0 0 500.000000 500.000000"
 preserveAspectRatio="xMidYMid meet">

<g transform="translate(0.000000,500.000000) scale(0.100000,-0.100000)"
fill="#000000" stroke="none">
<path d="M2877 4569 c-71 -11 -121 -46 -237 -165 -119 -122 -142 -162 -148
-251 -4 -51 0 -71 22 -120 24 -52 87 -118 574 -600 l547 -542 -1710 -3 -1710
-3 -46 -21 c-59 -27 -116 -85 -143 -143 -18 -39 -21 -69 -24 -203 -3 -121 0
-169 12 -211 19 -67 76 -133 142 -167 l49 -25 1703 -3 c936 -1 1702 -5 1702
-9 0 -4 -245 -253 -544 -553 -511 -512 -545 -548 -561 -598 -21 -65 -17 -150
10 -207 11 -22 68 -91 129 -153 131 -134 182 -165 279 -164 124 0 71 -48 1089
969 671 671 934 940 955 977 23 42 28 63 28 121 0 132 48 78 -982 1106 -510
510 -943 934 -961 944 -46 22 -117 32 -175 24z"/>
</g>
</svg>
