<?xml version="1.0" standalone="no"?>
<!DOCTYPE svg PUBLIC "-//W3C//DTD SVG 20010904//EN"
 "http://www.w3.org/TR/2001/REC-SVG-20010904/DTD/svg10.dtd">
<svg version="1.0" xmlns="http://www.w3.org/2000/svg"
 width="320.000000pt" height="85.000000pt" viewBox="0 0 320.000000 85.000000"
 preserveAspectRatio="xMidYMid meet">
<metadata>
Created by potrace 1.16, written by Peter Selinger 2001-2019
</metadata>
<g transform="translate(0.000000,85.000000) scale(0.100000,-0.100000)"
fill="#000000" stroke="none">
<path d="M36 734 c-23 -22 -20 -40 16 -91 33 -49 68 -148 67 -191 0 -26 -1
-26 -9 -4 -10 25 -57 31 -78 10 -15 -15 -15 -51 0 -66 21 -21 68 -15 78 11 8
21 9 21 9 -5 1 -43 -34 -142 -68 -192 -61 -88 -13 -136 75 -75 47 32 147 69
187 69 19 0 20 -1 3 -13 -12 -9 -17 -23 -14 -41 4 -39 29 -53 62 -38 35 16 37
68 4 82 -23 9 -23 9 3 9 43 1 131 -29 191 -66 56 -34 58 -35 83 -19 33 22 32
32 -10 102 -36 60 -65 140 -65 178 1 19 2 19 11 4 6 -11 22 -18 40 -18 37 0
58 35 40 69 -15 26 -65 29 -81 4 -9 -14 -10 -8 -5 27 7 50 44 137 75 177 25
32 25 55 2 76 -26 23 -37 22 -89 -15 -47 -32 -147 -68 -186 -68 -20 1 -20 2
-4 11 28 16 22 67 -9 81 -33 15 -58 1 -62 -38 -3 -18 2 -32 14 -41 17 -12 16
-13 -3 -13 -40 0 -140 37 -186 68 -51 36 -69 39 -91 16z"/>
<path d="M1765 650 c-28 -11 -42 -29 -52 -70 -7 -25 -16 -36 -31 -38 -25 -4
-31 -42 -7 -42 19 0 19 -7 -6 -131 -23 -115 -30 -129 -65 -129 -18 0 -24 -6
-24 -21 0 -18 5 -20 42 -17 56 4 73 31 98 153 31 155 27 145 60 145 23 0 30 4
30 20 0 15 -7 20 -25 20 -28 0 -30 6 -15 44 8 21 16 26 45 26 28 0 35 4 35 19
0 29 -41 39 -85 21z"/>
<path d="M864 611 c-44 -27 -72 -67 -90 -129 -39 -134 31 -223 150 -191 50 13
66 26 66 50 0 23 -7 23 -54 4 -43 -18 -81 -11 -101 18 -29 41 -12 127 36 181
34 40 65 48 109 29 42 -17 47 -17 55 4 18 48 -107 73 -171 34z"/>
<path d="M2772 598 c-6 -6 -12 -22 -12 -35 0 -22 -3 -23 -40 -17 -31 5 -45 2
-59 -10 -16 -15 -19 -15 -24 -1 -7 17 -25 19 -46 6 -10 -6 -58 -199 -61 -243
0 -5 18 -8 39 -8 l39 0 7 50 c4 27 17 69 28 92 20 39 26 43 60 44 38 1 39 1
32 -30 -3 -17 -9 -54 -12 -82 -5 -48 -4 -53 21 -69 35 -23 91 -13 100 18 9 34
8 37 -19 37 -21 0 -25 5 -25 28 0 15 5 44 11 65 8 30 15 37 34 37 23 0 45 24
45 49 0 6 -13 11 -29 11 -26 0 -29 3 -27 33 1 27 -3 32 -24 35 -14 2 -31 -3
-38 -10z"/>
<path d="M1094 536 c-44 -20 -76 -70 -82 -127 -7 -72 3 -98 45 -115 94 -40
184 34 187 153 1 41 -4 57 -20 73 -27 27 -89 35 -130 16z m84 -48 c27 -27 2
-126 -36 -147 -54 -29 -91 6 -78 72 12 65 80 109 114 75z"/>
<path d="M1375 534 c-19 -10 -31 -11 -33 -5 -7 20 -41 12 -47 -11 -8 -33 -45
-219 -45 -225 0 -2 12 -3 27 -1 25 3 28 9 40 65 7 35 19 76 28 93 19 37 60 59
77 42 11 -11 8 -39 -18 -172 -6 -27 -4 -30 19 -30 28 0 29 2 47 94 13 62 52
116 85 116 25 0 28 -24 11 -105 -21 -100 -20 -105 7 -105 21 0 25 8 40 78 24
108 22 147 -5 166 -29 21 -46 20 -89 -2 -35 -18 -37 -18 -59 0 -27 22 -46 23
-85 2z"/>
<path d="M1863 535 c-58 -25 -102 -157 -71 -214 19 -36 63 -47 104 -27 19 8
34 11 34 6 0 -6 11 -10 25 -10 14 0 25 2 25 4 0 5 38 193 45 224 5 18 1 22
-20 22 -14 0 -25 -4 -25 -9 0 -6 -12 -3 -27 5 -34 17 -49 17 -90 -1z"/>
<path d="M2073 538 c-8 -11 -53 -215 -53 -241 0 -5 17 -7 37 -5 l37 3 13 65
c15 73 39 113 72 118 25 4 26 -7 6 -98 -20 -93 -21 -92 22 -88 l37 3 18 85
c20 95 16 145 -12 160 -27 15 -72 12 -97 -5 -19 -13 -22 -13 -27 0 -7 18 -40
20 -53 3z"/>
<path d="M2363 534 c-49 -25 -77 -77 -78 -146 0 -78 24 -103 100 -103 87 0
142 53 152 148 5 53 4 58 -25 86 -25 25 -39 31 -74 31 -24 0 -58 -8 -75 -16z"/>
<path d="M2932 530 c-40 -25 -71 -89 -72 -148 0 -56 12 -77 51 -91 40 -14 64
-14 112 0 32 9 37 14 37 41 0 25 -3 29 -17 23 -64 -25 -113 -13 -113 26 0 16
8 19 50 19 55 0 104 20 114 45 31 83 -74 138 -162 85z"/>
<path d="M1826 233 c-11 -67 -9 -73 23 -73 17 0 33 5 36 10 5 7 11 8 19 1 6
-5 30 -10 53 -9 37 0 42 3 47 29 7 38 24 37 18 -1 -5 -32 13 -42 21 -12 4 16
5 16 6 0 1 -13 10 -18 31 -18 17 0 30 5 30 12 0 9 3 9 12 0 15 -15 58 -16 58
-2 0 6 -10 10 -22 11 -21 1 -20 2 5 11 34 12 38 48 4 48 -13 0 -28 -5 -34 -11
-7 -7 -9 -3 -6 15 6 28 -11 36 -21 11 -3 -8 -15 -15 -26 -15 -11 0 -20 -6 -20
-12 0 -10 -2 -10 -8 -1 -5 8 -31 11 -72 10 -50 -2 -69 2 -82 16 -10 9 -29 17
-42 17 -19 0 -24 -6 -30 -37z"/>
<path d="M2943 249 c-6 -6 -34 -11 -61 -11 -56 1 -75 -13 -70 -50 3 -23 5 -23
128 -23 123 0 125 0 128 23 2 13 10 26 18 29 34 13 9 24 -48 22 -41 -2 -63 1
-66 9 -5 15 -15 15 -29 1z"/>
<path d="M2220 215 c-11 -29 -4 -55 16 -55 8 0 14 -7 14 -16 0 -26 25 -9 31
22 4 16 7 21 8 12 1 -13 10 -18 31 -18 17 0 30 5 30 12 0 9 3 9 12 0 15 -15
58 -16 58 -2 0 6 -10 10 -22 11 -22 0 -22 1 -3 9 30 13 35 12 35 -10 0 -31 17
-24 24 10 7 38 22 39 21 3 0 -23 5 -29 28 -31 29 -4 38 14 10 20 -13 2 -11 6
9 15 23 10 25 10 20 -13 -2 -14 0 -24 7 -24 6 0 11 6 11 13 0 7 7 22 15 33 15
18 16 17 9 -15 -5 -26 -3 -32 7 -29 8 3 16 13 17 24 7 35 25 41 20 7 -3 -23 0
-33 9 -33 7 0 13 6 13 13 0 9 2 9 8 0 4 -6 31 -11 60 -11 57 -1 75 15 52 43
-10 12 -9 15 4 15 9 0 16 4 16 8 0 15 -343 13 -352 -1 -6 -9 -8 -9 -8 1 0 15
-42 16 -58 0 -9 -9 -12 -9 -12 0 0 7 -4 12 -10 12 -5 0 -10 -8 -10 -19 0 -10
-7 -24 -15 -31 -13 -11 -14 -8 -9 19 6 30 -9 45 -19 19 -4 -10 -6 -10 -6 0 -1
7 -14 12 -31 12 -23 0 -33 -6 -40 -25z"/>
</g>
</svg>
