<?xml version="1.0" encoding="utf-8"?>
<!DOCTYPE svg PUBLIC "-//W3C//DTD SVG 1.0//EN" "http://www.w3.org/TR/2001/REC-SVG-20010904/DTD/svg10.dtd">
<svg version="1.0" xmlns="http://www.w3.org/2000/svg" width="157px" height="147px" viewBox="0 0 157 147" preserveAspectRatio="xMidYMid meet">
 <g fill="#ffffff">
  <path d="M0 73.5 l0 -73.5 78.5 0 78.5 0 0 73.5 0 73.5 -78.5 0 -78.5 0 0 -73.5z m79.6 62 c2 -2 2.3 -2.9 1.4 -4.4 -2.2 -4.2 -8.5 -3.8 -9.6 0.6 -0.5 2 -0.2 3.1 1.6 4.5 2.9 2.4 3.6 2.3 6.6 -0.7z m-58.1 -1.8 c14 -9.4 27.3 -14.2 43.5 -15.8 24.4 -2.4 47.7 3.1 65.7 15.5 2.9 2 5.8 3.6 6.4 3.6 1.7 0 4.9 -3 4.9 -4.6 0 -0.7 -2.4 -4.6 -5.3 -8.6 -10.6 -14.9 -14.7 -28.3 -14.9 -48.8 -0.2 -21.2 4 -35.1 15.4 -50.8 5 -6.9 5.8 -8.5 4.7 -9.8 -3 -3.7 -4.4 -3.5 -12.4 1.8 -9.5 6.2 -20.5 11 -31.1 13.4 -11.6 2.6 -34.9 2.4 -46.5 -0.4 -10.2 -2.5 -23.2 -8.5 -30.8 -14.1 -3 -2.3 -5.8 -4.1 -6.2 -4.1 -0.4 0 -2 1.1 -3.6 2.4 l-2.7 2.4 4.8 5.8 c5.4 6.6 12.7 21 15.2 29.9 2.2 8.1 3 28.9 1.4 37.9 -2.6 14.3 -8.9 28.3 -17.4 38.5 -3.4 4.1 -3.5 4.3 -2 6.7 2.2 3.3 5 3 10.9 -0.9z m-3.1 -56.6 c3.2 -3.6 -1.2 -9.3 -5.4 -7.1 -3.4 1.8 -4.2 4.4 -1.9 6.9 2.5 2.6 5.1 2.7 7.3 0.2z m122.6 -0.6 c1.9 -2.1 2.1 -2.7 1 -4 -2.8 -3.4 -5 -3.8 -7.6 -1.4 -2.8 2.7 -3 3.6 -0.7 6.1 2.2 2.5 4.5 2.3 7.3 -0.7z m-61.8 -57.2 c2.5 -2.3 2.3 -5 -0.7 -6.9 -2.3 -1.5 -2.7 -1.5 -5 0 -2.9 1.9 -3.2 4.2 -0.8 6.8 2 2.2 4.1 2.3 6.5 0.1z"/>
 </g>
 <g fill="#ec3c38">
  <path d="M24.7 102.7 c-1.6 -1.1 -1.6 -1.6 -0.4 -5.2 4.2 -11.7 4.7 -30.3 1.2 -43 -2.3 -8.7 -9.6 -23.2 -14.9 -29.6 -5.6 -6.8 -6.2 -11.5 -2 -14.8 4.3 -3.4 9.1 -2.8 15.5 2 7.6 5.7 20.6 11.6 30.8 14.1 14.6 3.5 41.5 2.3 50.3 -2.3 5.8 -3.1 6.3 15.3 0.8 25.3 -0.6 1 -1 2.8 -1 4 0 2.8 -8.2 20.7 -9.5 20.8 -0.6 0 -2.7 2.1 -4.6 4.8 -3.8 5 -8.4 8.4 -23.4 17.2 -8.3 4.9 -9.8 5.5 -19 6.6 -13 1.7 -21.7 1.7 -23.8 0.1z"/>
  <path d="M11.1 81.9 c-8.6 -3.4 -5.8 -15.9 3.6 -15.9 4.2 0.1 6.3 1.3 8.1 4.7 1.9 3.5 1.4 6.3 -1.7 9.4 -3 3 -5.8 3.5 -10 1.8z"/>
  <path d="M73.3 24.3 c-1.3 -0.2 -3.2 -1.6 -4.4 -3.1 -2.6 -3.3 -2 -8.8 1.2 -11.5 3.2 -2.6 9.4 -2.2 12.4 0.8 6.2 6.1 -0.2 15.6 -9.2 13.8z"/>
 </g>
 <g fill="#dc3737">
  <path d="M14.2 137.5 c0.2 -1.9 0.1 -3.5 -0.3 -3.5 -0.4 0 -1.4 -0.3 -2.3 -0.6 -1.3 -0.5 -1.6 0.1 -1.6 2.5 0 3.5 -0.7 3.9 -2.6 1.4 -2.3 -3.1 -1.7 -7.9 1.6 -11.6 4.5 -5.2 11.8 -17.5 13.6 -23.1 0.9 -2.8 1.8 -5.3 2 -5.4 0.1 -0.2 1.2 0.6 2.3 1.7 2.4 2.4 4.6 2.5 18.6 0.7 9.2 -1.1 10.7 -1.7 19 -6.6 15 -8.8 19.6 -12.2 23.4 -17.2 1.9 -2.7 4 -4.8 4.6 -4.8 1.3 -0.1 9.5 -18 9.5 -20.8 0 -1.2 0.4 -3 1 -4 1.5 -2.8 4 -11.1 4 -13.5 0 -3 -2.7 -6.7 -4.8 -6.7 -0.9 0 2.4 -1.7 7.3 -3.8 5 -2.1 12.6 -6.1 17 -9 4.3 -2.9 8.7 -5.2 9.7 -5.2 1.1 0 2.4 1.4 3.5 3.8 1.3 3.2 2 3.8 4 3.4 4 -0.8 2.8 3.3 -3.6 12.1 -10.2 14.1 -15.2 29.2 -15.2 45.7 0 4.9 -0.4 9 -0.8 9 -0.5 0 -1.6 1.9 -2.6 4.3 -0.9 2.3 -3.2 6 -5 8.2 -4.9 6 -15.2 16.5 -16.2 16.5 -0.4 0 -2.3 1.3 -4.1 2.9 l-3.3 2.9 4.1 0.7 c2.2 0.4 4 1.1 4 1.6 0 0.5 0.7 0.9 1.5 0.9 0.9 0 1.5 0.9 1.5 2.3 l0 2.4 -6.9 -1.8 c-15.3 -3.7 -31.2 -3.3 -46.5 1.2 -9.1 2.7 -15.4 5.7 -25.1 11.8 -9.7 6.2 -11.9 6.5 -11.3 1.6z"/>
 </g>
 <g fill="#c73437">
  <path d="M10.4 140 c-4.4 -1.7 -5.1 -11.1 -1.2 -14.7 1.1 -0.9 1.9 -1.3 1.8 -0.8 -0.5 2.3 0.2 3.6 2.6 5.2 2.8 1.8 12.4 2.6 12.4 0.9 0 -0.5 0.3 -0.6 0.7 -0.2 0.5 0.4 0 1.4 -1 2.1 -1.2 0.8 -1.4 1.5 -0.7 2 1.8 1.1 0 2.5 -2.6 1.9 -1.9 -0.5 -2.3 -0.3 -1.8 0.9 0.4 1.2 0.1 1.4 -1.7 1 -1.8 -0.5 -2.1 -0.3 -1.6 1 0.5 1.3 0.1 1.7 -2.1 1.6 -1.5 0 -3.7 -0.4 -4.8 -0.9z"/>
  <path d="M70.3 139.5 c-4.5 -3.2 -3.7 -12.1 1.3 -14.4 3.3 -1.5 5.9 -1.4 9.3 0.4 7.7 3.9 4.3 15.5 -4.6 15.5 -2.1 0 -4.8 -0.7 -6 -1.5z"/>
  <path d="M134 140.3 c-0.8 -0.4 -3.7 -2.2 -6.5 -4 -5.5 -3.9 -18.7 -10.2 -25.2 -12.3 -2.4 -0.7 -4.3 -1.8 -4.3 -2.4 0 -0.6 -0.4 -0.5 -0.9 0.2 -0.7 1.2 -1.1 1.2 -2.2 0 -0.7 -0.8 -2.3 -1.2 -3.6 -1 -1.6 0.3 -2.3 0 -2.3 -1.2 0 -1.7 -1.6 -2.2 -2.2 -0.8 -0.7 1.8 -5.6 2.2 -7.2 0.6 -0.9 -0.8 -1.6 -1.1 -1.6 -0.5 0 0.5 -2.4 1.3 -5.4 1.6 -4.2 0.6 -6 0.3 -7.7 -0.9 -1.7 -1.1 -1.9 -1.6 -0.8 -2 2.2 -0.7 9.2 -1.8 10.9 -1.7 8.7 0.5 13.2 -0.6 17.5 -4.4 2.2 -1.9 4.4 -3.5 4.8 -3.5 1.1 0 11.8 -11.1 16.7 -17.1 2 -2.5 4.4 -7.2 5.4 -10.3 1.3 -4 2.3 -5.6 3.6 -5.6 1.4 0 1.8 0.9 1.9 5.3 0.2 12.6 6.7 29.6 16 42.2 6 8.2 6.5 11.3 2.2 15.6 -2.8 2.8 -5.7 3.5 -9.1 2.2z"/>
  <path d="M59.1 120.7 c-0.9 -1.2 -0.8 -1.6 0.3 -2 1.9 -0.7 3.2 1.1 1.9 2.4 -0.6 0.6 -1.4 0.5 -2.2 -0.4z"/>
  <path d="M130.9 80.1 c-3.6 -3.6 -3.7 -7 -0.3 -11 2 -2.5 3.4 -3.1 6.4 -3.1 8.7 0 12.4 9 5.9 14.4 -4.1 3.5 -8.3 3.4 -12 -0.3z"/>
  <path d="M137.5 22 c1.1 -2.2 1 -3.1 -0.7 -6.9 -1.7 -3.7 -2.3 -4.2 -4.4 -3.7 -3.5 0.9 -2.9 -1 0.7 -2.3 4.7 -1.6 7.3 -1.4 10.3 1 3.1 2.4 3.6 7.6 0.9 8.6 -1 0.3 -2.6 1.3 -3.5 2.1 -1.6 1.3 -1.6 1.6 -0.3 2.6 1.3 0.9 1 1.1 -1.4 1.1 -2.8 0 -2.8 -0.1 -1.6 -2.5z"/>
 </g>
</svg>