<?xml version="1.0" standalone="no"?>
<!DOCTYPE svg PUBLIC "-//W3C//DTD SVG 20010904//EN"
 "http://www.w3.org/TR/2001/REC-SVG-20010904/DTD/svg10.dtd">
<svg version="1.0" xmlns="http://www.w3.org/2000/svg"
 width="500.000000pt" height="500.000000pt" viewBox="0 0 500.000000 500.000000"
 preserveAspectRatio="xMidYMid meet">

<g transform="translate(0.000000,500.000000) scale(0.100000,-0.100000)"
fill="#000000" stroke="none">
<path d="M142 4161 c-47 -8 -85 -32 -116 -75 -21 -27 -21 -30 -24 -1564 -2
-1059 0 -1548 8 -1574 13 -44 66 -93 117 -107 53 -15 4693 -15 4745 -1 48 14
97 55 114 97 21 48 21 3078 0 3126 -17 42 -66 83 -114 97 -42 11 -4658 12
-4730 1z m4528 -1661 l0 -1330 -2170 0 -2170 0 0 1330 0 1330 2170 0 2170 0 0
-1330z"/>
<path d="M1231 3489 c-114 -22 -251 -120 -320 -228 -99 -155 -97 -373 4 -528
101 -153 283 -245 456 -229 348 32 561 394 414 704 -100 211 -327 326 -554
281z m204 -355 c31 -20 65 -91 65 -136 0 -55 -39 -118 -90 -145 -52 -28 -91
-29 -146 -4 -55 25 -87 71 -92 136 -7 90 44 161 127 175 43 7 103 -4 136 -26z"/>
<path d="M2422 3313 c-93 -46 -116 -179 -44 -257 55 -59 8 -56 1040 -56 l948
0 44 23 c89 44 116 163 56 242 -53 69 17 65 -1048 65 -867 0 -966 -2 -996 -17z"/>
<path d="M2446 2660 c-44 -14 -93 -67 -105 -114 -18 -72 9 -143 73 -190 27
-21 33 -21 999 -21 957 0 973 0 1007 20 42 24 80 94 80 145 0 51 -38 121 -80
145 -34 20 -51 20 -990 22 -526 1 -968 -2 -984 -7z"/>
<path d="M1165 2316 c-193 -45 -341 -130 -472 -270 -99 -106 -193 -294 -193
-386 0 -48 42 -112 90 -137 l43 -23 699 0 c769 0 737 -2 795 63 45 51 49 96
20 189 -81 256 -306 468 -582 549 -91 27 -312 35 -400 15z m277 -331 c37 -7
89 -23 115 -35 53 -23 153 -95 153 -110 0 -6 -140 -10 -375 -10 -206 0 -375 4
-375 8 0 27 121 104 204 131 105 34 175 38 278 16z"/>
<path d="M2423 1979 c-112 -55 -119 -215 -13 -286 l33 -23 471 0 c536 0 519
-2 564 81 42 79 22 169 -52 223 -27 20 -41 21 -494 24 -458 2 -468 2 -509 -19z"/>
</g>
</svg>
