<?xml version="1.0" standalone="no"?>
<!DOCTYPE svg PUBLIC "-//W3C//DTD SVG 20010904//EN"
 "http://www.w3.org/TR/2001/REC-SVG-20010904/DTD/svg10.dtd">
<svg version="1.0" xmlns="http://www.w3.org/2000/svg"
 width="512.000000pt" height="512.000000pt" viewBox="0 0 512.000000 512.000000"
 preserveAspectRatio="xMidYMid meet">

<g transform="translate(0.000000,512.000000) scale(0.100000,-0.100000)"
fill="#000000" stroke="none">
<path d="M2444 4789 c-220 -17 -450 -96 -641 -221 -127 -83 -299 -251 -380
-369 -103 -150 -189 -355 -224 -534 -21 -107 -19 -418 4 -525 119 -556 534
-966 1097 -1087 64 -13 129 -18 260 -18 196 0 274 13 447 70 490 163 850 601
924 1124 19 132 6 372 -26 501 -94 379 -327 690 -660 883 -157 91 -371 160
-534 172 -42 3 -96 7 -121 9 -25 2 -91 0 -146 -5z"/>
<path d="M1008 2566 c-136 -56 -268 -147 -379 -263 -162 -169 -266 -386 -298
-617 -15 -105 -15 -908 0 -978 42 -203 210 -354 420 -378 113 -13 3505 -13
3619 0 211 24 380 179 420 385 8 42 10 198 8 525 -4 463 -4 465 -30 561 -56
207 -139 357 -279 503 -49 51 -123 117 -164 145 -88 61 -264 147 -274 135 -4
-5 -37 -54 -73 -109 -472 -718 -1411 -970 -2178 -585 -268 135 -490 332 -662
590 -39 58 -71 106 -72 107 -1 1 -27 -8 -58 -21z"/>
</g>
</svg>
